# xmcd
#
# Track frame offsets:
#	150
#	13198
#	26468
#	40554
#	52298
#	65182
#	78955
#	91659
#	105457
#	117764
#	129977
#	144674
#	170457
#	183370
#	196662
#	210968
#	223769
#	236257
#	251397
#	265025
#	279118
#	294027
#	306659
#	320012
#	333993
#
# Disc length: 4619 seconds
#
# Revision: 0
# Processed by: cddbd v1.5.2PL0 Copyright (c) Steve Scherf et al.
# Submitted via: FairStars CD Ripper 1.80
#
DISCID=57120919
DTITLE=Various Artist - Blues From The Vocalion Vaults cd1
DYEAR=2014
DGENRE=Blues
TTITLE0=Robert Johnson - Ramblin' On My Mind 
TTITLE1=Blind Boy Fuller - Step It Up And Go 
TTITLE2=Blind Willie Mctell - Broke Down Engine Blues 
TTITLE3=Sonny Terry - Harmonica And Washboard Breakdown 
TTITLE4=Big Bill Broonzy - How You Want It Done 
TTITLE5=Mississippi Sheiks - Sitting On Top Of The World 
TTITLE6=Victoria Spivey - Toothache Blues 
TTITLE7=Peetie Wheatstraw - Police Station Blues 
TTITLE8=Henry Thomas - Fishing Blues 
TTITLE9=Bertha "Chippie" Hill - Trouble In Mind 
TTITLE10=Casey Bill Weldon - W.P.A. Blues 
TTITLE11=St. Louis Bessie - Sugar Man Blues Pt.1 and Pt.2 
TTITLE12=Charlie Segar - Key To The Highway 
TTITLE13=Rosa Henderson - Chicago Policemen Blues 
TTITLE14=Edmonia Henderson - Dead Man Blues 
TTITLE15=Bumble Bee Slim - New B and O Blues 
TTITLE16=Charley Jordan - Keep It Clean 
TTITLE17=George Noble - Dozing Blues 
TTITLE18=Tampa Red - You Rascal You 
TTITLE19=Bernice Edwards - Butcher Shop Blues 
TTITLE20=Mississippi Sarah and Daddy Stovepipe - Burleskin' Blues 
TTITLE21=Lulu Jackson - Lost Lover Blues 
TTITLE22=Monkey Joe and Roosevelt Scott - Send Me An Angel Down 
TTITLE23=Leroy Carr and Scrapper Blackwell - How Long, How Long Blues 
TTITLE24=Texas Alexander and Willie Reed - Easy Rider Blues 
EXTD=
EXTT0=
EXTT1=
EXTT2=
EXTT3=
EXTT4=
EXTT5=
EXTT6=
EXTT7=
EXTT8=
EXTT9=
EXTT10=
EXTT11=
EXTT12=
EXTT13=
EXTT14=
EXTT15=
EXTT16=
EXTT17=
EXTT18=
EXTT19=
EXTT20=
EXTT21=
EXTT22=
EXTT23=
EXTT24=
PLAYORDER=
